<svg id="icon-3" xmlns="http://www.w3.org/2000/svg" width="83.469" height="68.87" viewBox="0 0 83.469 68.87">
  <defs>
    <style>
      .cls-1 {
        fill: #39b54a;
      }

      .cls-1, .cls-2 {
        fill-rule: evenodd;
      }
    </style>
  </defs>
  <path id="Kształt_10_kopia_2" data-name="Kształt 10 kopia 2" class="cls-1" d="M407,3796a20,20,0,1,1-20,20A20,20,0,0,1,407,3796Zm51.624,5.56,1.032,1.03a0.737,0.737,0,0,1,0,1.04,0.728,0.728,0,0,1-1.038,0l-1.032-1.03-1.031,1.03a0.728,0.728,0,0,1-1.038,0,0.738,0.738,0,0,1,0-1.04l1.031-1.03-1.031-1.03a0.738,0.738,0,0,1,0-1.04,0.728,0.728,0,0,1,1.038,0l1.031,1.03,1.032-1.03a0.728,0.728,0,0,1,1.038,0,0.737,0.737,0,0,1,0,1.04Zm-6.122,48.45a2.51,2.51,0,1,1,2.508-2.51A2.515,2.515,0,0,1,452.5,3850.01Zm0-4.22a1.71,1.71,0,1,0,1.709,1.71A1.714,1.714,0,0,0,452.5,3845.79Zm-7-50.68a1.61,1.61,0,1,1,1.607-1.61A1.609,1.609,0,0,1,445.5,3795.11Zm-9.256,64.01h-1.093v1.1a0.55,0.55,0,0,1-1.1,0v-1.1h-1.094a0.547,0.547,0,0,1-.55-0.55,0.553,0.553,0,0,1,.55-0.55h1.094v-1.09a0.55,0.55,0,1,1,1.1,0v1.09h1.093a0.552,0.552,0,0,1,.55.55A0.546,0.546,0,0,1,436.244,3859.12ZM382.5,3799.01a2.51,2.51,0,1,1,2.508-2.51A2.515,2.515,0,0,1,382.5,3799.01Zm0-4.22a1.71,1.71,0,1,0,1.71,1.71A1.714,1.714,0,0,0,382.5,3794.79Zm-2.448,37.77h1.453a0.735,0.735,0,0,1,0,1.47h-1.453v1.45a0.731,0.731,0,0,1-1.462,0v-1.45h-1.453a0.735,0.735,0,0,1,0-1.47h1.453v-1.45a0.731,0.731,0,0,1,1.462,0v1.45Z" transform="translate(-376.406 -3791.91)"/>
  <path id="Kształt_11" data-name="Kształt 11" class="cls-2" d="M426.365,3840.37l-7.414,4.94a0.8,0.8,0,0,1-.905,0l-7.412-4.94a17.072,17.072,0,0,1-7.623-14.24v-16.68a0.812,0.812,0,0,1,.556-0.77l14.673-4.91a0.768,0.768,0,0,1,.518,0l14.673,4.91a0.812,0.812,0,0,1,.556.77v16.68A17.071,17.071,0,0,1,426.365,3840.37Zm5.992-30.33L418.5,3805.4l-13.857,4.64v16.09a15.465,15.465,0,0,0,6.9,12.89l6.961,4.63,6.961-4.63a15.466,15.466,0,0,0,6.9-12.89v-16.09Zm-17.02,13.72,1.531,1.53,4.794-4.79a2.442,2.442,0,0,1,3.457,3.45l-6.521,6.52a2.436,2.436,0,0,1-3.458,0l-3.261-3.26A2.442,2.442,0,0,1,415.337,3823.76Zm-2.305,2.3,3.26,3.26a0.812,0.812,0,0,0,1.153,0l6.521-6.52a0.814,0.814,0,0,0-1.153-1.15l-5.368,5.37a0.831,0.831,0,0,1-1.153,0l-2.108-2.11A0.814,0.814,0,1,0,413.032,3826.06Zm-5.945-6.28a0.819,0.819,0,0,1,.815.82,0.815,0.815,0,0,1-1.63,0A0.819,0.819,0,0,1,407.087,3819.78Zm17.469,17.88-5.6,3.74a0.853,0.853,0,0,1-.905,0l-5.6-3.74a13.814,13.814,0,0,1-6.171-11.53v-2.27a0.815,0.815,0,1,1,1.63,0v2.27a12.188,12.188,0,0,0,5.445,10.17l5.152,3.44,5.152-3.44a12.19,12.19,0,0,0,5.445-10.17v-13.74l-10.6-3.55-10.6,3.55v4.95a0.815,0.815,0,0,1-1.63,0v-5.54a0.811,0.811,0,0,1,.556-0.77l11.412-3.82a0.768,0.768,0,0,1,.518,0l11.413,3.82a0.811,0.811,0,0,1,.555.77v14.33A13.815,13.815,0,0,1,424.556,3837.66Z" transform="translate(-376.406 -3791.91)"/>
</svg>
