<svg id="icon-1" xmlns="http://www.w3.org/2000/svg" width="83.469" height="68.87" viewBox="0 0 83.469 68.87">
  <defs>
    <style>
      .cls-1 {
        fill: #f76a1d;
      }

      .cls-1, .cls-2 {
        fill-rule: evenodd;
      }
    </style>
  </defs>
  <path id="Elipsa_539" data-name="Elipsa 539" class="cls-1" d="M457.623,3524.56l1.032,1.03a0.738,0.738,0,0,1,0,1.04,0.728,0.728,0,0,1-1.038,0l-1.032-1.03-1.032,1.03a0.727,0.727,0,0,1-1.037,0,0.736,0.736,0,0,1,0-1.04l1.032-1.03-1.031-1.03a0.734,0.734,0,0,1,0-1.04,0.726,0.726,0,0,1,1.036,0l1.032,1.03,1.032-1.03a0.728,0.728,0,0,1,1.038,0,0.738,0.738,0,0,1,0,1.04Zm-6.122,48.45a2.51,2.51,0,1,1,2.508-2.51A2.515,2.515,0,0,1,451.5,3573.01Zm0-4.22a1.71,1.71,0,1,0,1.709,1.71A1.714,1.714,0,0,0,451.5,3568.79Zm-7-50.68a1.61,1.61,0,1,1,1.607-1.61A1.61,1.61,0,0,1,444.5,3518.11Zm-9.257,64.01H434.15v1.1a0.55,0.55,0,1,1-1.1,0v-1.1h-1.093a0.546,0.546,0,0,1-.55-0.55,0.552,0.552,0,0,1,.55-0.55h1.093v-1.09a0.55,0.55,0,1,1,1.1,0v1.09h1.094a0.552,0.552,0,0,1,.55.55A0.546,0.546,0,0,1,435.244,3582.12ZM407,3561a20,20,0,1,1,20-20A20,20,0,0,1,407,3561Zm-25.5-38.99a2.51,2.51,0,1,1,2.508-2.51A2.515,2.515,0,0,1,381.5,3522.01Zm0-4.22a1.71,1.71,0,1,0,1.709,1.71A1.713,1.713,0,0,0,381.5,3517.79Zm-2.448,37.77h1.453a0.735,0.735,0,0,1,0,1.47h-1.453v1.45a0.731,0.731,0,0,1-1.462,0v-1.45h-1.453a0.735,0.735,0,0,1,0-1.47h1.453v-1.45a0.731,0.731,0,0,1,1.462,0v1.45Z" transform="translate(-375.406 -3514.91)"/>
  <path id="Kształt_8" data-name="Kształt 8" class="cls-2" d="M418.763,3532.26a0.764,0.764,0,0,0-.925.56,0.772,0.772,0,0,0,.566.93,13.8,13.8,0,1,1-6.494,0,0.773,0.773,0,0,0,.566-0.93,0.765,0.765,0,0,0-.926-0.56,15.335,15.335,0,1,0,7.213,0h0Zm15.561,13.08-0.9-1.68,0.149-2.07a3.915,3.915,0,0,0-1.417-3.47l-1.49-1.22-0.585-1.77a3.961,3.961,0,0,0-2.682-2.84l-1.838-.55-1.407-1.63a3.945,3.945,0,0,0-3.373-1.37l-1.907.19-1.876-.94a3.891,3.891,0,0,0-3.689,0l-1.674.9-2.069-.15a3.879,3.879,0,0,0-3.464,1.42l-1.22,1.49-1.764.59a3.922,3.922,0,0,0-2.835,2.68l-0.555,1.84-1.627,1.41a3.933,3.933,0,0,0-1.364,3.38l0.19,1.91-0.941,1.88a3.912,3.912,0,0,0,0,3.69l0.9,1.68-0.149,2.07a3.925,3.925,0,0,0,1.417,3.47l1.488,1.22,0.586,1.76a3.944,3.944,0,0,0,2.682,2.84l1.838,0.56,1.407,1.63a3.911,3.911,0,0,0,3.373,1.36l1.907-.19,1.876,0.94a3.908,3.908,0,0,0,1.846.47,4.011,4.011,0,0,0,1.843-.46l1.674-.9,2.069,0.15a3.928,3.928,0,0,0,3.464-1.42l1.219-1.49,1.765-.59a3.942,3.942,0,0,0,2.835-2.68l0.555-1.84,1.628-1.41a3.949,3.949,0,0,0,1.364-3.38l-0.191-1.91,0.941-1.88a3.912,3.912,0,0,0,0-3.69h0Zm-2.411,5.08a0.763,0.763,0,0,0-.078.42l0.213,2.13a2.4,2.4,0,0,1-.837,2.06l-1.8,1.56a0.758,0.758,0,0,0-.233.36l-0.619,2.05a2.391,2.391,0,0,1-1.751,1.64,0.177,0.177,0,0,1-.067.02l-2.007.67a0.816,0.816,0,0,0-.352.24l-1.36,1.67a2.393,2.393,0,0,1-2.123.86h-0.03l-2.305-.17a0.757,0.757,0,0,0-.417.09l-1.869,1a2.365,2.365,0,0,1-2.251,0,0.018,0.018,0,0,0-.019-0.01l-2.082-1.05a0.818,0.818,0,0,0-.344-0.08h-0.076l-2.128.22a2.418,2.418,0,0,1-2.057-.84l-1.557-1.8a0.773,0.773,0,0,0-.359-0.24l-2.05-.62a2.4,2.4,0,0,1-1.641-1.75c0-.02-0.012-0.05-0.019-0.07l-0.667-2.01a0.729,0.729,0,0,0-.241-0.35l-1.661-1.36a2.4,2.4,0,0,1-.863-2.13c0-.01,0-0.02,0-0.03l0.167-2.31a0.736,0.736,0,0,0-.089-0.41l-1-1.87a2.4,2.4,0,0,1,0-2.26,0.035,0.035,0,0,0,.01-0.02l1.044-2.08a0.78,0.78,0,0,0,.078-0.42l-0.212-2.13a2.392,2.392,0,0,1,.836-2.06l1.8-1.56a0.79,0.79,0,0,0,.232-0.36l0.619-2.06a2.43,2.43,0,0,1,1.751-1.64,0.167,0.167,0,0,0,.068-0.02l2.007-.66a0.758,0.758,0,0,0,.352-0.25l1.36-1.66a2.394,2.394,0,0,1,2.123-.86h0.03l2.305,0.17a0.764,0.764,0,0,0,.418-0.09l1.868-1.01a2.393,2.393,0,0,1,2.251.01c0.006,0,.012.01,0.018,0.01l2.083,1.04a0.686,0.686,0,0,0,.42.08l2.128-.21a2.364,2.364,0,0,1,2.057.84l1.557,1.8a0.753,0.753,0,0,0,.359.23l2.05,0.62a2.409,2.409,0,0,1,1.641,1.76c0,0.02.012,0.04,0.019,0.06l0.666,2.01a0.828,0.828,0,0,0,.242.36l1.661,1.36a2.378,2.378,0,0,1,.863,2.12l0,0.03-0.167,2.31a0.779,0.779,0,0,0,.089.42l1,1.87a2.382,2.382,0,0,1,0,2.25m0,0M411.83,3543a0.768,0.768,0,0,0-.693-0.44h-4.051a0.765,0.765,0,0,0-.767.77v11.62a0.772,0.772,0,0,0,.767.77h4.051a0.774,0.774,0,0,0,.706-0.47,14.741,14.741,0,0,1,1.814.42,11.064,11.064,0,0,0,2.93.53h4.427a3.067,3.067,0,0,0,2.965-1.94,2.745,2.745,0,0,0,.141-1.72,2.809,2.809,0,0,0,.632-0.85,2.941,2.941,0,0,0,.209-2.08,2.728,2.728,0,0,0,.744-1.3,2.759,2.759,0,0,0,.012-1.4,2.306,2.306,0,0,0,.442-3.67,2.37,2.37,0,0,0-1.664-.66h-6.239a2.082,2.082,0,0,1-.352-2.05,4,4,0,0,0-.111-3.67,3.118,3.118,0,0,0-2.785-1.62,1.447,1.447,0,0,0-1.238,1.21,4.342,4.342,0,0,0-.063.65,5.443,5.443,0,0,1-.6,2.44,6.427,6.427,0,0,0-.575,1.99c-0.149.88-.221,1.31-0.705,1.47h0Zm-3.977,1.1h2.517v10.08h-2.517V3544.1Zm6.193-2.31a5.209,5.209,0,0,1,.423-1.54,6.969,6.969,0,0,0,.769-3.07,4.211,4.211,0,0,1,.035-0.43h0a1.832,1.832,0,0,1,1.163.83,2.458,2.458,0,0,1,.052,2.36,3.537,3.537,0,0,0,.023,2.65,0.769,0.769,0,0,0,.106,1.53H424.5a0.869,0.869,0,0,1,.606.23,0.772,0.772,0,0,1,.24.58,0.829,0.829,0,0,1-.823.78l-1.973.04a0.77,0.77,0,0,0,.016,1.54h0.016l1.644-.04a1.269,1.269,0,0,1-.031.78,1.025,1.025,0,0,1-1,.75,0.77,0.77,0,0,0,0,1.54c0.116,0,.23-0.01.341-0.02a1.487,1.487,0,0,1-.154.71,1.022,1.022,0,0,1-.945.63,0.77,0.77,0,0,0,0,1.54,1.856,1.856,0,0,0,.236-0.01,1.455,1.455,0,0,1-.116.53,1.568,1.568,0,0,1-1.536.97h-4.427a9.947,9.947,0,0,1-2.52-.48,15.509,15.509,0,0,0-2.163-.48v-9.16c1.726-.31,1.964-1.71,2.142-2.76h0Zm1.112-8.43a0.765,0.765,0,1,0,0-1.53h0a0.765,0.765,0,1,0,0,1.53h0Z" transform="translate(-375.406 -3514.91)"/>
</svg>
