<svg id="icon-4" xmlns="http://www.w3.org/2000/svg" width="83.469" height="68.87" viewBox="0 0 83.469 68.87">
  <defs>
    <style>
      .cls-1 {
        fill: #a527a2;
      }

      .cls-1, .cls-2 {
        fill-rule: evenodd;
      }
    </style>
  </defs>
  <path id="Elipsa_542" data-name="Elipsa 542" class="cls-1" d="M720.623,3894.56l1.032,1.03a0.737,0.737,0,0,1,0,1.04,0.728,0.728,0,0,1-1.038,0l-1.032-1.03-1.031,1.03a0.728,0.728,0,0,1-1.038,0,0.737,0.737,0,0,1,0-1.04l1.032-1.03-1.032-1.03a0.737,0.737,0,0,1,0-1.04,0.728,0.728,0,0,1,1.038,0l1.031,1.03,1.032-1.03a0.728,0.728,0,0,1,1.038,0,0.737,0.737,0,0,1,0,1.04Zm-6.123,48.45a2.51,2.51,0,1,1,2.509-2.51A2.515,2.515,0,0,1,714.5,3943.01Zm0-4.22a1.71,1.71,0,1,0,1.71,1.71A1.713,1.713,0,0,0,714.5,3938.79Zm-7-50.68a1.61,1.61,0,1,1,1.608-1.61A1.609,1.609,0,0,1,707.5,3888.11Zm-9.256,64.01h-1.093v1.1a0.55,0.55,0,0,1-1.1,0v-1.1h-1.094a0.546,0.546,0,0,1-.55-0.55,0.552,0.552,0,0,1,.55-0.55h1.094v-1.09a0.55,0.55,0,0,1,1.1,0v1.09h1.093a0.552,0.552,0,0,1,.55.55A0.546,0.546,0,0,1,698.244,3952.12ZM676,3927a20,20,0,1,1,20-20A20,20,0,0,1,676,3927Zm-31.5-34.99a2.51,2.51,0,1,1,2.508-2.51A2.515,2.515,0,0,1,644.5,3892.01Zm0-4.22a1.71,1.71,0,1,0,1.71,1.71A1.714,1.714,0,0,0,644.5,3887.79Zm-2.448,37.77h1.452a0.735,0.735,0,0,1,0,1.47h-1.452v1.45a0.731,0.731,0,0,1-1.462,0v-1.45h-1.453a0.735,0.735,0,0,1,0-1.47h1.453v-1.45a0.731,0.731,0,0,1,1.462,0v1.45Z" transform="translate(-638.406 -3884.91)"/>
  <path id="Kształt_13" data-name="Kształt 13" class="cls-2" d="M702.329,3920.55h1.115v6.16h-1.115v-6.16Zm3.5,6.39v2.42H702.41v-1.11h2.3v-1.31h1.115Zm-4.532,2.42H700.18v-1.11H701.3v1.11Zm-1.313-7.11H701.1v4.46h-1.114v-4.46Zm-0.917,7.11H697.95v-1.11h1.115v1.11Zm-1.432-4.9h1.115v2.25h-1.115v-2.25Zm2.576-9.33a1.672,1.672,0,1,1-1.672-1.67A1.682,1.682,0,0,1,700.209,3915.13Zm-2.229,0a0.558,0.558,0,1,0,.557-0.55A0.558,0.558,0,0,0,697.98,3915.13Zm-5.992,0a1.673,1.673,0,1,1-1.673-1.67A1.683,1.683,0,0,1,691.988,3915.13Zm-2.231,0a0.558,0.558,0,1,0,.558-0.55A0.559,0.559,0,0,0,689.757,3915.13Zm-0.7-12.82h11.272l-1.344,7.81H690.4Zm1.708,3.35,0.574,3.34h6.706l0.191-1.11h-3.306v-1.11h3.5l0.577-3.35h-8.625l0.194,1.12h4.616v1.11h-4.425Zm6.655,0h-1.115v-1.11h1.115v1.11Zm-4.72,1.12h1.115v1.11H692.7v-1.11Zm7.694,5.57H688.524l-1.12-6.52h-1.083v-1.11h2.022l1.121,6.51H700.4v1.12Zm2.086-11.61H703.6v1.21h-1.115v-1.21Zm1.115,4.64h-1.115v-2.23H703.6v2.23Zm3.513,30.67h-3.738v-1.11h3.246l1.319-1.45v-1.9H695.469l-0.693,2.23h-9.5l-0.693-2.23h-3.631v-1.11h25.99V3910.1l-1.115-1.11v8.09l-1.957,1.95h-5.2l-4.105,4.06-4.1-4.06h-5.2l-1.957-1.95v-8.28h-8.886l-1.3,1.3v16.96H672v-17.42l1.957-1.96H683.3v-7.72l1.957-1.96H703.87l1.957,1.96v2.9h-1.115v-2.44l-1.3-1.31H685.717l-1.3,1.31v16.2l1.3,1.3h5.2l3.647,3.61,3.647-3.61h5.2l1.3-1.3v-12.65h1.115v3.71H706.1l1.957,1.96v20.84h1v3.44Zm-21.36-4.46,0.346,1.12h7.858l0.346-1.12h-8.55Zm4.118-4.88h-11.4v-1.11h11.4v1.11Zm0-2.47H683.05v-1.11h6.819v1.11Zm-13.415,2.47v-1.11h1.008v1.11h-1.008Zm0-3.58h5.3v1.11h-5.3v-1.11Zm0-9.48h5.716v5.9h-5.716v-5.9Zm1.115,4.78h3.486v-3.66h-3.486v3.66Zm12.3,3.35H676.454v-1.12h13.415v1.12ZM672,3928.17h1.115v2.31h6.727v1.11h-7.723v1.9l1.32,1.45h28.825v1.11H672.941L671,3933.92v-3.44h1v-2.31Z" transform="translate(-638.406 -3884.91)"/>
</svg>
