<svg xmlns="http://www.w3.org/2000/svg" width="15.784" height="15.78" viewBox="0 0 15.784 15.78">
  <defs>
    <style>
      .cls-1 {
        fill: #ccc;
        fill-rule: evenodd;
      }
    </style>
  </defs>
  <path id="instagram" class="cls-1" d="M1007.28,5144.8a4.04,4.04,0,1,0,4.04,4.04A4.035,4.035,0,0,0,1007.28,5144.8Zm0,6.67a2.63,2.63,0,1,1,2.63-2.63A2.631,2.631,0,0,1,1007.28,5151.47Zm5.15-6.83a0.945,0.945,0,1,0-.94.94A0.947,0.947,0,0,0,1012.43,5144.64Zm2.67,0.95a4.355,4.355,0,0,0-4.57-4.57c-1.3-.08-5.2-0.08-6.5,0a4.361,4.361,0,0,0-4.574,4.57c-0.074,1.3-.074,5.2,0,6.5a4.361,4.361,0,0,0,4.574,4.57c1.3,0.08,5.2.08,6.5,0a4.355,4.355,0,0,0,4.57-4.57C1015.18,5150.79,1015.18,5146.89,1015.1,5145.59Zm-1.68,7.89a2.649,2.649,0,0,1-1.49,1.5,33.873,33.873,0,0,1-9.29,0,2.637,2.637,0,0,1-1.5-1.5,33.8,33.8,0,0,1,0-9.28,2.637,2.637,0,0,1,1.5-1.5,33.873,33.873,0,0,1,9.29,0,2.62,2.62,0,0,1,1.49,1.5A33.8,33.8,0,0,1,1013.42,5153.48Z" transform="translate(-999.406 -5140.97)"/>
</svg>
