<svg xmlns="http://www.w3.org/2000/svg" width="36.813" height="43.85" viewBox="0 0 36.813 43.85">
  <defs>
    <style>
      .cls-1 {
        fill: #fecd4d;
        fill-rule: evenodd;
      }
    </style>
  </defs>
  <path id="mattress" class="cls-1" d="M978.5,5003.41a2.745,2.745,0,0,1-.275-0.95l-0.029-.14c-0.012-.04-1.319-4.36-1.319-13.31s1.307-13.27,1.32-13.31l0.029-.14a2.7,2.7,0,0,1,.275-0.95l0.769-1.54a4.139,4.139,0,0,0-3.705-5.99h-28.5a4.137,4.137,0,0,0-3.7,5.99l0.769,1.54a2.745,2.745,0,0,1,.275.95l0.029,0.14c0.013,0.04,1.319,4.36,1.319,13.31s-1.306,13.27-1.32,13.31l-0.029.14a2.722,2.722,0,0,1-.274.95l-0.77,1.54a4.139,4.139,0,0,0,3.7,5.99h28.5a4.137,4.137,0,0,0,3.7-5.99Zm-2.935,6.12h-28.5a2.73,2.73,0,0,1-2.439-3.95l0.77-1.54a4.1,4.1,0,0,0,.409-1.37c0.18-.61,1.363-4.98,1.363-13.66s-1.183-13.05-1.363-13.66a4.1,4.1,0,0,0-.409-1.37l-0.77-1.54a2.73,2.73,0,0,1,2.439-3.95h28.5a2.73,2.73,0,0,1,2.439,3.95l-0.77,1.54a4.1,4.1,0,0,0-.409,1.37c-0.18.61-1.363,4.98-1.363,13.66s1.183,13.05,1.363,13.66a4.1,4.1,0,0,0,.409,1.37l0.77,1.54A2.73,2.73,0,0,1,975.563,5009.53Zm-9.724-24.62-2.08,1.56a3.5,3.5,0,0,0-4.895,0l-2.08-1.56-0.848,1.13,2.12,1.59a3.518,3.518,0,0,0,0,2.76l-2.12,1.59,0.848,1.13,2.08-1.56a3.5,3.5,0,0,0,4.895,0l2.08,1.56,0.848-1.13-2.12-1.59a3.518,3.518,0,0,0,0-2.76l2.12-1.59Zm-4.528,6.22a2.12,2.12,0,1,1,2.123-2.12A2.123,2.123,0,0,1,961.311,4991.13Zm4.528-18.25-2.08,1.56a3.52,3.52,0,0,0-4.895,0l-2.08-1.56-0.848,1.13,2.12,1.59a3.528,3.528,0,0,0-.282,1.38,3.491,3.491,0,0,0,.282,1.38l-2.12,1.59,0.848,1.14,2.08-1.56a3.52,3.52,0,0,0,4.895,0l2.08,1.56,0.848-1.14-2.12-1.59a3.491,3.491,0,0,0,.282-1.38,3.528,3.528,0,0,0-.282-1.38l2.12-1.59Zm-4.528,6.23a2.125,2.125,0,1,1,2.123-2.13A2.132,2.132,0,0,1,961.311,4979.11Zm4.528,18.53-2.08,1.56a3.52,3.52,0,0,0-4.895,0l-2.08-1.56-0.848,1.13,2.12,1.59a3.528,3.528,0,0,0-.282,1.38,3.491,3.491,0,0,0,.282,1.38l-2.12,1.59,0.848,1.14,2.08-1.56a3.52,3.52,0,0,0,4.895,0l2.08,1.56,0.848-1.14-2.12-1.59a3.491,3.491,0,0,0,.282-1.38,3.528,3.528,0,0,0-.282-1.38l2.12-1.59Zm-4.528,6.23a2.125,2.125,0,1,1,2.123-2.13A2.132,2.132,0,0,1,961.311,5003.87Z" transform="translate(-942.906 -4967.09)"/>
</svg>
