<svg id="logo" xmlns="http://www.w3.org/2000/svg" width="173.5" height="30.72" viewBox="0 0 173.5 30.72">
  <defs>
    <style>
      .cls-1 {
        fill: #898989;
      }

      .cls-1, .cls-2 {
        fill-rule: evenodd;
      }

      .cls-2 {
        fill: #aaa;
      }
    </style>
  </defs>
  <path id="max_kopia" data-name="max kopia" class="cls-1" d="M2458.94,2238.7h9.22l3.49-17.95c0.34-2.25.88-3.61,1.64-4.06a3.923,3.923,0,0,1,1.88-.68,2.222,2.222,0,0,1,1.45.58,2.316,2.316,0,0,1,.7,1.9,17.433,17.433,0,0,1-.24,2.26l-2.78,17.95h9.21l3.51-17.37a9.367,9.367,0,0,1,1.36-4.11,2.717,2.717,0,0,1,2.19-1.07c1.46,0,2.18.85,2.18,2.55a15.08,15.08,0,0,1-.19,2.05l-2.91,17.95h10.75l2.75-19.63a20.564,20.564,0,0,0,.24-2.86,7.934,7.934,0,0,0-2.17-5.87,7.749,7.749,0,0,0-5.77-2.19q-5.49,0-8.13,5.23-1.785-5.37-6.9-5.37-5.37,0-8.38,5.37l0.7-4.5h-9.26Zm75.08-3.22a41.844,41.844,0,0,1,.73-5.64q1.935-11.4,1.93-13.28a7.07,7.07,0,0,0-3.31-6.34q-3.315-2.145-9.1-2.15-11.445,0-14.81,8.11l8.86,1.94c0.97-2.18,2.48-3.26,4.53-3.26,2.08,0,3.12.79,3.12,2.39a5.8,5.8,0,0,1-.34,1.68q-7.215.72-9.69,1.14a14.884,14.884,0,0,0-4.84,1.75,9.426,9.426,0,0,0-3.66,3.56,9.7,9.7,0,0,0-1.29,4.93,8.156,8.156,0,0,0,2.39,6,8.488,8.488,0,0,0,6.28,2.4q5.73,0,8.94-5.5c-0.13,1.34-.2,2.5-0.2,3.48,0,0.35.03,0.8,0.08,1.36h10.65a14.228,14.228,0,0,1-.27-2.57h0Zm-11.26-5.23a4.5,4.5,0,0,1-3.07,1.47,2.138,2.138,0,0,1-2.39-2.45q0-4.485,7.41-5.09Q2524.29,2228.785,2522.76,2230.25Zm38.63-10.7,8.11-10.67h-8.61l-4.87,7.2-3.29-7.2h-11l5.78,12.98-10.63,15.77h1.53s8.1-2.11,12.26-6.58C2554.94,2226.46,2561.39,2219.55,2561.39,2219.55Z" transform="translate(-2396 -2208)"/>
  <path id="Prostokąt_7" data-name="Prostokąt 7" class="cls-2" d="M2415,2208h41.45l-2.85,16.89c-1.29,7.63-8.52,13.81-16.15,13.81H2396l2.85-16.88C2400.14,2214.19,2407.37,2208,2415,2208Zm145.55,16.28c1.89,4.18,6.23,13.77,6.23,13.77h-11.24s-1.03-2.33-2.06-4.7C2553.48,2233.35,2558.52,2227.97,2560.55,2224.28Zm-121.56-5.53a3.07,3.07,0,1,1,3.07-3.07A3.071,3.071,0,0,1,2438.99,2218.75Zm9.21-1.54a16.987,16.987,0,0,1-16.89,12.28c-25.88,0-27.63,6.14-27.63,6.14,0-4.09,10.58-10.74,27.63-10.74C2443.32,2224.89,2448.2,2217.21,2448.2,2217.21Z" transform="translate(-2396 -2208)"/>
</svg>
