<svg id="max-meble" xmlns="http://www.w3.org/2000/svg" width="173.5" height="30.719" viewBox="0 0 173.5 30.719">
  <defs>
    <style>
      .cls-1 {
        fill: #333;
      }

      .cls-1, .cls-2 {
        fill-rule: evenodd;
      }

      .cls-2 {
        fill: #00aeef;
      }
    </style>
  </defs>
  <path id="max_kopia" data-name="max kopia" class="cls-1" d="M426.944,133.7h9.212l3.491-17.956q0.512-3.379,1.641-4.058a3.9,3.9,0,0,1,1.883-.679,2.257,2.257,0,0,1,1.452.577,2.341,2.341,0,0,1,.7,1.906,17.168,17.168,0,0,1-.242,2.253L442.3,133.7h9.211l3.514-17.378a9.2,9.2,0,0,1,1.36-4.1,2.718,2.718,0,0,1,2.191-1.069q2.18,0,2.179,2.542a15.78,15.78,0,0,1-.188,2.05L457.65,133.7H468.4l2.75-19.632a20.527,20.527,0,0,0,.243-2.859,7.974,7.974,0,0,0-2.167-5.878,7.781,7.781,0,0,0-5.774-2.18q-5.491,0-8.129,5.227-1.779-5.371-6.9-5.372-5.364,0-8.382,5.372l0.7-4.505h-9.256Zm75.076-3.227a42.526,42.526,0,0,1,.726-5.632q1.94-11.407,1.94-13.286a7.079,7.079,0,0,0-3.313-6.339q-3.312-2.151-9.1-2.152-11.445,0-14.811,8.116l8.86,1.935q1.454-3.264,4.526-3.264,3.124,0,3.125,2.4a6,6,0,0,1-.339,1.675q-7.214.722-9.689,1.14a15,15,0,0,0-4.843,1.748,9.484,9.484,0,0,0-3.66,3.567,9.675,9.675,0,0,0-1.291,4.924,8.149,8.149,0,0,0,2.4,6.008,8.482,8.482,0,0,0,6.274,2.4q5.736,0,8.939-5.5-0.2,2.005-.2,3.479,0,0.52.081,1.359h10.645a14.239,14.239,0,0,1-.268-2.571h0Zm-11.262-5.228a4.49,4.49,0,0,1-3.067,1.473,2.143,2.143,0,0,1-2.394-2.454q0-4.477,7.415-5.084Q492.292,123.776,490.758,125.249Zm38.633-10.7,8.106-10.675h-8.61l-4.869,7.2-3.286-7.2h-11l5.78,12.982L504.88,132.626h1.532s8.1-2.105,12.256-6.572C522.942,121.461,529.391,114.552,529.391,114.552Z" transform="translate(-364 -103)"/>
  <path id="Prostokąt_7" data-name="Prostokąt 7" class="cls-2" d="M383,103h41.452L421.6,119.887c-1.287,7.631-8.518,13.817-16.15,13.817H364l2.85-16.887C368.138,109.186,375.368,103,383,103Zm145.546,16.276c1.9,4.186,6.232,13.772,6.232,13.772H523.536s-1.021-2.33-2.059-4.7C521.477,128.352,526.517,122.969,528.545,119.276Zm-121.559-5.53a3.071,3.071,0,1,1,3.07-3.07A3.071,3.071,0,0,1,406.986,113.746Zm9.211-1.535a16.98,16.98,0,0,1-16.888,12.282c-25.877,0-27.634,6.141-27.634,6.141,0-4.091,10.583-10.747,27.634-10.747C411.322,119.887,416.2,112.211,416.2,112.211Z" transform="translate(-364 -103)"/>
</svg>
