<svg xmlns="http://www.w3.org/2000/svg" width="19.187" height="13.5" viewBox="0 0 19.187 13.5">
  <defs>
    <style>
      .cls-1 {
        fill: #ccc;
        fill-rule: evenodd;
      }
    </style>
  </defs>
  <path id="youtube" class="cls-1" d="M968.664,5170.21a2.4,2.4,0,0,0-1.7-1.71c-1.5-.41-7.5-0.41-7.5-0.41s-6,0-7.5.41a2.394,2.394,0,0,0-1.7,1.71,27.095,27.095,0,0,0,0,9.3,2.372,2.372,0,0,0,1.7,1.68,70.541,70.541,0,0,0,15,0,2.373,2.373,0,0,0,1.7-1.68A27.161,27.161,0,0,0,968.664,5170.21Zm-11.162,7.5V5172l5.018,2.86Z" transform="translate(-949.875 -5168.09)"/>
</svg>
