<svg id="ico-8" xmlns="http://www.w3.org/2000/svg" width="72.22" height="54.69" viewBox="0 0 72.22 54.69">
  <defs>
    <style>
      .cls-1 {
        fill: #fecd4d;
      }

      .cls-2 {
        fill-rule: evenodd;
      }
    </style>
  </defs>
  <circle id="Elipsa_713" data-name="Elipsa 713" class="cls-1" cx="24.64" cy="24.64" r="24.64"/>
  <path id="Kształt_761" data-name="Kształt 761" class="cls-2" d="M4913.2,1072.82a3.213,3.213,0,0,1-1.67,2.04,0.57,0.57,0,0,0-.18.45c-0.02.83,0,1.67-.01,2.5a2.8,2.8,0,1,1-5.6-.02v-2.65h-41.09c0,0.84.01,1.69,0,2.54a2.8,2.8,0,1,1-5.59.3c-0.03-.89,0-1.78-0.01-2.67a0.605,0.605,0,0,0-.18-0.45,3.29,3.29,0,0,1-1.68-2.04v-7.52a3.21,3.21,0,0,1,1.7-2.09,0.779,0.779,0,0,0,.16-0.57q0.015-7.41.01-14.82c0-1.35-.01-2.69,0-4.04a2.805,2.805,0,0,1,2.81-2.91,2.77,2.77,0,0,1,2.78,2.89c0.01,2.47,0,4.94.01,7.41v0.65h0.82q20.79,0,41.6.01a5.84,5.84,0,0,1,1.87.27,3.6,3.6,0,0,1,2.39,3.51c0.01,2.34.01,4.69,0,7.03a0.661,0.661,0,0,0,.4.72,2.954,2.954,0,0,1,1.46,1.94v7.52Zm-27.98-7.96h-24.94a1.009,1.009,0,0,0-1.22,1.2v5.84c0,1.06.28,1.34,1.37,1.34h49.54c1.09,0,1.37-.28,1.37-1.36v-5.67c0-1.09-.26-1.35-1.35-1.35h-24.77Zm-20.54-1.91h44.79v-7.13a1.9,1.9,0,0,0-2.16-2.13h-42.05c-0.19,0-.38.03-0.58,0.04v9.22Zm-1.92.03c0.01-.2.02-0.34,0.02-0.48v-18.53a3.088,3.088,0,0,0-.01-0.43,0.882,0.882,0,0,0-.84-0.8,0.85,0.85,0,0,0-.93.61,1.884,1.884,0,0,0-.07.58q-0.015,9.27-.01,18.53c0,0.17.02,0.34,0.02,0.52h1.82Zm-1.84,12.14v2.4a2.413,2.413,0,0,0,.01.38,0.947,0.947,0,0,0,.91.91,0.872,0.872,0,0,0,.92-0.76c0.03-.97.01-1.94,0.01-2.93h-1.85Zm46.7,0.01c0,0.97-.02,1.89,0,2.81a0.919,0.919,0,0,0,1.83.07c0.04-.95.01-1.9,0.01-2.88h-1.84Zm-30.83-29.44v-2.33c0-1.16-.01-2.33,0-3.49a0.968,0.968,0,0,1,.91-1.08,0.952,0.952,0,0,1,.95,1.09c0.01,1.76,0,3.53,0,5.29v0.52c0.07,0.04.14,0.09,0.2,0.13,0.3-.35.58-0.72,0.91-1.05a0.923,0.923,0,0,1,1.4-.12,0.942,0.942,0,0,1-.09,1.44c-0.85.85-1.7,1.7-2.56,2.54a0.959,0.959,0,0,1-1.56.01l-2.55-2.55a0.957,0.957,0,0,1-.1-1.44,0.93,0.93,0,0,1,1.4.12c0.33,0.32.63,0.66,0.94,0.99C4876.69,1045.74,4876.74,1045.71,4876.79,1045.69Zm9.34,0v-0.58c0-1.76,0-3.53.01-5.29a0.921,0.921,0,0,1,.84-1.02,0.909,0.909,0,0,1,.99.75,4.021,4.021,0,0,1,.03.6c0.01,1.67.01,3.34,0.01,5.01v0.53c0.04,0.02.08,0.05,0.13,0.07,0.32-.33.63-0.68,0.96-1a0.921,0.921,0,0,1,1.4-.1,0.931,0.931,0,0,1-.07,1.4c-0.87.88-1.74,1.75-2.63,2.62a0.929,0.929,0,0,1-1.48-.01c-0.88-.86-1.76-1.74-2.63-2.62a0.935,0.935,0,1,1,1.31-1.32c0.17,0.16.34,0.32,0.5,0.5s0.29,0.37.44,0.55C4886,1045.75,4886.07,1045.72,4886.13,1045.69Zm11.21,0.18c0.44-.45.76-0.79,1.1-1.11a0.934,0.934,0,1,1,1.32,1.3c-0.87.88-1.74,1.76-2.63,2.62a0.929,0.929,0,0,1-1.48-.01c-0.88-.87-1.75-1.74-2.62-2.63a0.918,0.918,0,0,1-.09-1.36,0.93,0.93,0,0,1,1.4.05c0.35,0.34.66,0.7,0.99,1.05a0.638,0.638,0,0,0,.14-0.08v-5.81a0.959,0.959,0,0,1,.94-1.1,0.986,0.986,0,0,1,.93,1.12v5.96Zm-25.2,15.26a0.95,0.95,0,0,1-.94-0.93,0.925,0.925,0,0,1,1.85-.02A0.928,0.928,0,0,1,4872.14,1061.13Zm26.14-1.85a0.93,0.93,0,0,1,.92.95,0.963,0.963,0,0,1-.92.9,0.943,0.943,0,0,1-.94-0.93A0.916,0.916,0,0,1,4898.28,1059.28Zm-26.17-1.87a0.952,0.952,0,0,1-.91-0.97,0.926,0.926,0,0,1,1.85.05A0.935,0.935,0,0,1,4872.11,1057.41Zm-3.71,1.87a0.937,0.937,0,0,1,.93.94,0.972,0.972,0,0,1-.92.91,0.948,0.948,0,0,1-.94-0.92A0.91,0.91,0,0,1,4868.4,1059.28Zm8.38,0.92a0.922,0.922,0,0,1-.93.93,0.959,0.959,0,0,1-.92-0.96,0.916,0.916,0,0,1,.91-0.89A0.9,0.9,0,0,1,4876.78,1060.2Zm17.74,0.93a0.931,0.931,0,0,1-.91-0.96,0.905,0.905,0,0,1,.97-0.89,0.932,0.932,0,0,1,.89.92A0.959,0.959,0,0,1,4894.52,1061.13Zm7.46,0a0.952,0.952,0,0,1-.91-0.97,0.916,0.916,0,0,1,.98-0.87,0.888,0.888,0,0,1,.87.92A0.928,0.928,0,0,1,4901.98,1061.13Zm-3.71-3.72a0.937,0.937,0,0,1-.93-0.94,0.93,0.93,0,0,1,1.86-.01A0.959,0.959,0,0,1,4898.27,1057.41Zm-29.86-1.85a0.922,0.922,0,0,1,.92.94,0.964,0.964,0,0,1-.92.91,0.93,0.93,0,0,1-.94-0.93A0.91,0.91,0,0,1,4868.41,1055.56Zm23.32,4.63a0.95,0.95,0,0,1-.93.94,0.928,0.928,0,0,1-.92-0.94,0.888,0.888,0,0,1,.89-0.9A0.917,0.917,0,0,1,4891.73,1060.19Zm13.99,0.94a0.959,0.959,0,0,1-.92-0.96,0.923,0.923,0,0,1,.97-0.89,0.9,0.9,0,0,1,.88.92A0.928,0.928,0,0,1,4905.72,1061.13Zm-3.73-5.57a0.9,0.9,0,0,1,.93.92,0.937,0.937,0,0,1-.94.93,0.948,0.948,0,0,1-.91-0.91A0.922,0.922,0,0,1,4901.99,1055.56Zm-22.39,0a0.888,0.888,0,0,1,.91.93,0.909,0.909,0,0,1-.89.91,0.944,0.944,0,0,1-.96-0.91A0.93,0.93,0,0,1,4879.6,1055.56Zm11.22,0a0.928,0.928,0,0,1,.91.95,0.963,0.963,0,0,1-.92.9,0.937,0.937,0,0,1-.93-0.94A0.89,0.89,0,0,1,4890.82,1055.56Zm-10.31,4.65a0.922,0.922,0,0,1-.94.92,0.957,0.957,0,0,1-.91-0.96,0.941,0.941,0,0,1,.93-0.89A0.9,0.9,0,0,1,4880.51,1060.21Zm-4.66-4.65a0.9,0.9,0,0,1,.93.92,0.93,0.93,0,0,1-.94.93,0.963,0.963,0,0,1-.91-0.91A0.928,0.928,0,0,1,4875.85,1055.56Zm11.2,0a0.937,0.937,0,0,1,.95.92,0.95,0.95,0,0,1-.94.93,0.932,0.932,0,0,1-.91-0.9A0.9,0.9,0,0,1,4887.05,1055.56Zm-2.8,4.63a0.922,0.922,0,0,1-.92.94,0.95,0.95,0,0,1-.93-0.94,0.932,0.932,0,0,1,.9-0.91A0.9,0.9,0,0,1,4884.25,1060.19Zm3.74,0.03a0.943,0.943,0,0,1-.96.91,0.924,0.924,0,0,1-.88-0.98,0.9,0.9,0,0,1,.92-0.87A0.922,0.922,0,0,1,4887.99,1060.22Zm7.48-3.72a0.943,0.943,0,0,1-.97.9,0.932,0.932,0,0,1-.89-0.98,0.911,0.911,0,0,1,.94-0.86A0.941,0.941,0,0,1,4895.47,1056.5Zm10.28,0.91a0.959,0.959,0,0,1-.95-0.93,0.925,0.925,0,0,1,.89-0.92,0.891,0.891,0,0,1,.96.89A0.929,0.929,0,0,1,4905.75,1057.41Zm-22.41-1.85a0.91,0.91,0,0,1,.91.95,0.939,0.939,0,0,1-.91.9,0.957,0.957,0,0,1-.94-0.93A0.922,0.922,0,0,1,4883.34,1055.56Z" transform="translate(-4841 -1026)"/>
</svg>
