<svg id="ico-6" xmlns="http://www.w3.org/2000/svg" width="70.12" height="59.406" viewBox="0 0 70.12 59.406">
  <defs>
    <style>
      .cls-1 {
        fill: #fecd4d;
      }

      .cls-2 {
        fill-rule: evenodd;
      }
    </style>
  </defs>
  <circle id="Elipsa_713" data-name="Elipsa 713" class="cls-1" cx="24.64" cy="24.64" r="24.64"/>
  <path id="Kształt_761" data-name="Kształt 761" class="cls-2" d="M5267.6,906.627a14.822,14.822,0,0,1,.95-1.373c1.36-1.591,2.74-3.159,4.12-4.737a1.992,1.992,0,0,1,3.01-.363q4.095,2.829,8.18,5.666a1.1,1.1,0,0,0,.98.17q6.93-1.643,13.87-3.257a3.981,3.981,0,0,1,2.99.428q6.66,3.866,13.31,7.746a4.087,4.087,0,0,1,2.04,2.8,0.607,0.607,0,0,0,.09.162v1.255c-0.08.258-.16,0.518-0.25,0.773a4.143,4.143,0,0,1-6.03,2.191c-1.87-1.067-3.73-2.167-5.59-3.252-0.16-.089-0.31-0.174-0.43-0.243a14.4,14.4,0,0,1-.81,1.38,4.49,4.49,0,0,1-2.97,1.629c-4.5.88-9,1.787-13.5,2.677a4.033,4.033,0,0,1-3.18-.632q-7.965-5.484-15.89-11a4.83,4.83,0,0,1-.89-1.152v-0.87Zm19.09,12.2c0.02-.034.03-0.068,0.05-0.1,0.21-.028.42-0.045,0.62-0.085q6.87-1.37,13.74-2.74a2.482,2.482,0,0,0,2.09-3.077,2.515,2.515,0,0,0-3.1-1.821c-2.35.514-4.69,1.039-7.03,1.56-1.35.3-2.7,0.608-4.05,0.9a0.86,0.86,0,0,1-1.19-.643,0.874,0.874,0,0,1,.85-0.975q5.505-1.219,11.03-2.437a4.159,4.159,0,0,1,5.1,2.991,0.831,0.831,0,0,0,.32.431c2.18,1.282,4.36,2.561,6.55,3.818a2.5,2.5,0,1,0,2.47-4.336q-6.54-3.822-13.1-7.635a2.763,2.763,0,0,0-2.13-.306c-4.73,1.116-9.47,2.215-14.2,3.339a1.6,1.6,0,0,1-1.4-.266c-2.82-1.975-5.66-3.93-8.49-5.89-0.54-.372-0.54-0.371-0.98.131-1.45,1.661-2.9,3.328-4.36,4.981-0.28.323-.26,0.515,0.1,0.761,5.21,3.591,10.41,7.2,15.63,10.777A7.568,7.568,0,0,0,5286.69,918.828ZM5267.6,938.4c0.11-.5.2-1.008,0.33-1.5a9.062,9.062,0,0,1,11.58-6.18,32.649,32.649,0,0,0,7.98,1.8c2.36,0.164,4.74.194,7.1,0.179a31.945,31.945,0,0,0,10.27-1.866,9.062,9.062,0,0,1,12.2,7.34,0.97,0.97,0,0,0,.08.224v1.834a2.473,2.473,0,0,0-.1.37,9.039,9.039,0,0,1-10.91,7.56c-1.22-.278-2.4-0.734-3.6-1.072a39.337,39.337,0,0,0-10.67-1.189,37.38,37.38,0,0,0-12.28,2,9.04,9.04,0,0,1-11.72-6.452c-0.1-.4-0.17-0.812-0.26-1.218V938.4Zm24.46,5.885a38.1,38.1,0,0,1,13.72,2.077,7.416,7.416,0,1,0-.29-14.018c-1.55.519-3.14,0.952-4.73,1.321a42.763,42.763,0,0,1-10.54.7c-1.22-.025-2.45-0.132-3.66-0.27a38.341,38.341,0,0,1-7.55-1.794,7.408,7.408,0,1,0-.01,14.05A36.78,36.78,0,0,1,5292.06,944.283Zm-0.52-17v-4.967c0-.746.29-1.118,0.84-1.112a0.879,0.879,0,0,1,.82,1.084v5l0.12,0.075c0.28-.3.56-0.6,0.85-0.891a0.828,0.828,0,1,1,1.17,1.154c-0.77.781-1.54,1.557-2.33,2.321a0.808,0.808,0,0,1-1.27.012c-0.8-.774-1.59-1.561-2.37-2.353a0.83,0.83,0,1,1,1.18-1.158c0.29,0.287.57,0.594,0.86,0.892C5291.45,927.324,5291.5,927.3,5291.54,927.283Zm-8.26.167v-4.974a3.87,3.87,0,0,1,.01-0.482,0.812,0.812,0,0,1,.86-0.789,0.794,0.794,0,0,1,.78.821c0.01,0.594,0,1.19,0,1.785v3.5a1.478,1.478,0,0,1,.14.092c0.28-.306.54-0.624,0.83-0.914a0.83,0.83,0,1,1,1.16,1.162c-0.75.767-1.52,1.53-2.29,2.284a0.831,0.831,0,0,1-1.34-.021c-0.77-.757-1.53-1.519-2.29-2.286a0.829,0.829,0,1,1,1.17-1.158C5282.6,926.755,5282.89,927.054,5283.28,927.45Zm16.53-.151v-4.665c0-.193-0.01-0.386,0-0.578a0.8,0.8,0,0,1,.79-0.851,0.817,0.817,0,0,1,.85.855c0.02,0.579.01,1.158,0.01,1.737,0,1.168,0,2.338.11,3.586,0.28-.3.55-0.6,0.84-0.891a0.825,0.825,0,0,1,1.27-.086,0.847,0.847,0,0,1-.1,1.24c-0.76.767-1.52,1.53-2.29,2.284a0.831,0.831,0,0,1-1.34-.015c-0.77-.756-1.54-1.516-2.3-2.283a0.829,0.829,0,1,1,1.16-1.169c0.3,0.291.57,0.611,0.85,0.919Zm-25.62,8.726a0.815,0.815,0,0,1-.82.823,0.851,0.851,0,0,1-.82-0.847,0.832,0.832,0,0,1,.81-0.794A0.806,0.806,0,0,1,5274.19,936.025Zm37.99,0.024a0.835,0.835,0,0,1-.86.8,0.819,0.819,0,0,1,.05-1.636A0.827,0.827,0,0,1,5312.18,936.049Zm-35.5,2.452a0.818,0.818,0,0,1,.82.833,0.81,0.81,0,0,1-.79.806A0.82,0.82,0,1,1,5276.68,938.5Zm13.2,0.821a0.808,0.808,0,0,1-.83.816,0.819,0.819,0,0,1,0-1.637A0.815,0.815,0,0,1,5289.88,939.322Zm6.61-.024a0.825,0.825,0,0,1-.81.84,0.8,0.8,0,0,1-.82-0.771,0.808,0.808,0,0,1,.77-0.869A0.836,0.836,0,0,1,5296.49,939.3Zm7.42,0.066a0.806,0.806,0,0,1-.87.775,0.815,0.815,0,0,1-.76-0.835,0.829,0.829,0,0,1,.85-0.8A0.806,0.806,0,0,1,5303.91,939.364Zm4.13,0.774a0.8,0.8,0,0,1-.8-0.838,0.811,0.811,0,0,1,.8-0.8A0.819,0.819,0,1,1,5308.04,940.138Zm4.97-1.64a0.842,0.842,0,0,1,.82.841,0.828,0.828,0,0,1-.8.8,0.808,0.808,0,0,1-.84-0.812A0.822,0.822,0,0,1,5313.01,938.5Zm-35.52-4.138a0.813,0.813,0,0,1-.8.841,0.832,0.832,0,0,1-.83-0.827,0.817,0.817,0,0,1,.79-0.809A0.793,0.793,0,0,1,5277.49,934.36Zm31.39,0.015a0.849,0.849,0,0,1-.84.828,0.813,0.813,0,0,1-.8-0.8,0.8,0.8,0,0,1,.8-0.843A0.822,0.822,0,0,1,5308.88,934.375Zm-28.08,1.63a0.815,0.815,0,1,1-1.63.021A0.815,0.815,0,0,1,5280.8,936.005Zm23.94,0.843a0.82,0.82,0,1,1,.83-0.819A0.821,0.821,0,0,1,5304.74,936.848Zm-23.13,1.653a0.838,0.838,0,0,1,.85.81,0.83,0.83,0,0,1-.78.826,0.807,0.807,0,0,1-.86-0.78A0.817,0.817,0,0,1,5281.61,938.5Zm-7.42,4.119a0.8,0.8,0,0,1-.83.813,0.83,0.83,0,0,1-.81-0.84,0.855,0.855,0,0,1,.82-0.8A0.818,0.818,0,0,1,5274.19,942.62Zm-2.45-4.12a0.819,0.819,0,0,1,.8.844,0.8,0.8,0,0,1-.85.793,0.832,0.832,0,0,1-.79-0.813A0.845,0.845,0,0,1,5271.74,938.5Zm14.83,3.289a0.81,0.81,0,0,1-.81.83,0.845,0.845,0,0,1-.82-0.842,0.811,0.811,0,0,1,.8-0.792A0.79,0.79,0,0,1,5286.57,941.789Zm12.43,0.832a0.83,0.83,0,0,1-.84-0.813,0.787,0.787,0,0,1,.76-0.821,0.825,0.825,0,0,1,.88.773A0.853,0.853,0,0,1,5299,942.621Zm13.18,0.013a0.819,0.819,0,0,1-.85.795,0.784,0.784,0,0,1-.78-0.852,0.811,0.811,0,0,1,.81-0.784A0.844,0.844,0,0,1,5312.18,942.634Zm-34.69,1.636a0.791,0.791,0,0,1-.83.806,0.812,0.812,0,0,1-.8-0.793,0.841,0.841,0,0,1,.81-0.84A0.814,0.814,0,0,1,5277.49,944.27Zm31.39-.026a0.823,0.823,0,0,1-.82.832,0.792,0.792,0,0,1-.82-0.769,0.824,0.824,0,0,1,.78-0.868A0.849,0.849,0,0,1,5308.88,944.244Zm-28.08-1.615a0.815,0.815,0,0,1-1.63,0,0.819,0.819,0,0,1,.81-0.835A0.833,0.833,0,0,1,5280.8,942.629Zm23.93-.835a0.834,0.834,0,0,1,.84.816,0.812,0.812,0,0,1-.77.818,0.8,0.8,0,0,1-.86-0.78A0.82,0.82,0,0,1,5304.73,941.794Zm-11.55.016a0.816,0.816,0,1,1-1.63-.055A0.816,0.816,0,0,1,5293.18,941.81Zm-7.44-4.147a0.814,0.814,0,1,1,.06-1.627A0.814,0.814,0,0,1,5285.74,937.663Zm13.22-1.628a0.814,0.814,0,1,1,.01,1.627A0.814,0.814,0,0,1,5298.96,936.035Zm-5.78.792a0.8,0.8,0,0,1-.8.834,0.813,0.813,0,0,1-.05-1.625A0.808,0.808,0,0,1,5293.18,936.827Z" transform="translate(-5247 -889)"/>
</svg>
