<svg id="ico-5" xmlns="http://www.w3.org/2000/svg" width="74.59" height="55.531" viewBox="0 0 74.59 55.531">
  <defs>
    <style>
      .cls-1 {
        fill: #fecd4d;
      }

      .cls-2 {
        fill-rule: evenodd;
      }
    </style>
  </defs>
  <circle id="Elipsa_713" data-name="Elipsa 713" class="cls-1" cx="24.64" cy="29.11" r="24.64"/>
  <path id="Kształt_761" data-name="Kształt 761" class="cls-2" d="M4843.87,926.5a11.442,11.442,0,0,1,1.72-3.288c2.91-4.6,5.83-9.183,8.71-13.8a3.29,3.29,0,0,1,3.22-1.767c0.4,0.027.8-.01,1.2,0.018a0.919,0.919,0,0,1,.93.935,0.9,0.9,0,0,1-.95.9c-0.53.02-1.05,0.008-1.58,0.008a1.1,1.1,0,0,0-1,.535q-4.71,7.449-9.43,14.893c-0.04.07-.06,0.153-0.12,0.275h50.34c-0.12-.211-0.2-0.366-0.29-0.512q-4.575-7.218-9.13-14.438a1.4,1.4,0,0,0-1.38-.759,12.849,12.849,0,0,1-1.36,0,0.889,0.889,0,0,1-.94-0.906,0.907,0.907,0,0,1,.93-0.932,17.378,17.378,0,0,1,1.95.011,2.888,2.888,0,0,1,2.31,1.514q4.455,7.064,8.94,14.113a11.318,11.318,0,0,1,1.64,3.2v11.282a3.109,3.109,0,0,1-2.28,2.278h-51.14a3.117,3.117,0,0,1-2.29-2.278V926.5Zm53.84,0.654h-51.94v1.8h0.84c1.24,0,2.47-.009,3.7.007a0.89,0.89,0,0,1,.98.873,0.906,0.906,0,0,1-.95.963c-0.75.028-1.49,0.01-2.23,0.01h-2.35c-0.02.217-.03,0.375-0.03,0.533v5.586a1.039,1.039,0,0,0,1.25,1.279h49.55a1,1,0,0,0,1.2-1.173V931.29c0-.14-0.02-0.281-0.03-0.477h-0.77q-20.67,0-41.34,0a4.281,4.281,0,0,1-.71-0.03,0.892,0.892,0,0,1-.78-0.947,0.882,0.882,0,0,1,.87-0.866c0.3-.024.61-0.012,0.92-0.012q20.625,0,41.23,0h0.59v-1.8Zm-36.2-25.965V886.716a1.915,1.915,0,0,1,2.19-2.2h3.04a1.906,1.906,0,0,1,2.2,2.18c0,4.607.01,9.214-.02,13.821,0,0.564.16,0.738,0.7,0.677a9.636,9.636,0,0,1,1.14-.006,1.763,1.763,0,0,1,1.68,1,1.793,1.793,0,0,1-.19,1.991c-0.92,1.248-1.86,2.486-2.8,3.728-0.88,1.171-1.75,2.347-2.64,3.51a1.862,1.862,0,0,1-3.16.013c-1.81-2.391-3.6-4.8-5.41-7.2a1.859,1.859,0,0,1,1.55-3.045C4860.35,901.194,4860.9,901.189,4861.51,901.189Zm1.85-14.808v0.635q0.015,7.347.01,14.694c0,1.065-.28,1.334-1.36,1.336h-2.34c1.89,2.513,3.71,4.927,5.55,7.382,1.87-2.478,3.68-4.883,5.56-7.386h-2.33c-1.1,0-1.37-.272-1.37-1.389q0-7.347-.01-14.7c0-.189-0.01-0.378-0.02-0.577h-3.69Zm18.59,9.238V910.07a1.922,1.922,0,0,1-2.22,2.219c-1.07,0-2.14,0-3.21,0a1.854,1.854,0,0,1-2-2.047c-0.01-4.608,0-9.215,0-13.822,0-.9.1-0.79-0.82-0.8-0.38,0-.76.012-1.14-0.013a1.826,1.826,0,0,1-1.43-2.866c0.41-.615.88-1.189,1.33-1.782q2.085-2.773,4.17-5.547a1.867,1.867,0,0,1,3.19-.009q2.7,3.569,5.38,7.153a1.856,1.856,0,0,1-1.51,3.064C4883.13,895.617,4882.58,895.619,4881.95,895.619Zm1.84-1.856c-1.89-2.508-3.7-4.912-5.55-7.376-1.87,2.471-3.69,4.882-5.52,7.311a0.868,0.868,0,0,0,.17.068q1.035,0,2.07,0c1.15,0,1.42.258,1.42,1.4v15.242h3.71V895.084c0-1.042.28-1.321,1.32-1.321h2.38Zm-16.68,22.227a0.949,0.949,0,0,1,.91.956,0.937,0.937,0,0,1-.98.886,0.9,0.9,0,0,1-.87-0.917A0.932,0.932,0,0,1,4867.11,915.99Zm9.24,1.844a0.925,0.925,0,0,1-.91-0.952,0.959,0.959,0,0,1,.93-0.891,0.926,0.926,0,0,1,.92.936A0.9,0.9,0,0,1,4876.35,917.834Zm-10.18,2.8a0.894,0.894,0,0,1,.9.936,0.921,0.921,0,0,1-.9.9,0.95,0.95,0,0,1-.94-0.921A0.922,0.922,0,0,1,4866.17,920.634Zm11.11,1.838a0.91,0.91,0,0,1-.89-0.955,0.883,0.883,0,0,1,.95-0.882,0.933,0.933,0,0,1,.89.915A0.954,0.954,0,0,1,4877.28,922.472Zm-19.48-6.483a0.931,0.931,0,0,1,.92.934,0.92,0.92,0,0,1-1.84.011A0.934,0.934,0,0,1,4857.8,915.989Zm28.77,1a0.914,0.914,0,1,1-1.82-.162,0.917,0.917,0,0,1,.96-0.83A0.926,0.926,0,0,1,4886.57,916.985Zm-30.62,3.649a0.9,0.9,0,0,1,.91.932,0.925,0.925,0,0,1-.89.906,0.949,0.949,0,0,1-.95-0.916A0.921,0.921,0,0,1,4855.95,920.634Zm30.65,0.934a0.9,0.9,0,0,1,.91-0.934,0.925,0.925,0,0,1,.93.919,0.952,0.952,0,0,1-.89.919A0.92,0.92,0,0,1,4886.6,921.568Zm-26.02-9.238a0.914,0.914,0,0,1-.97.872,0.914,0.914,0,0,1,.08-1.826A0.921,0.921,0,0,1,4860.58,912.33Zm23.22,0.872a0.913,0.913,0,1,1,.03-1.825A0.913,0.913,0,0,1,4883.8,913.2Z" transform="translate(-4825 -884.531)"/>
</svg>
