<svg id="ico-2" xmlns="http://www.w3.org/2000/svg" width="71" height="59.031" viewBox="0 0 71 59.031">
  <defs>
    <style>
      .cls-1 {
        fill: #fecd4d;
      }

      .cls-2 {
        fill-rule: evenodd;
      }
    </style>
  </defs>
  <circle id="Elipsa_713" data-name="Elipsa 713" class="cls-1" cx="24.64" cy="24.64" r="24.64"/>
  <path id="Kształt_761" data-name="Kształt 761" class="cls-2" d="M4900.26,765.985a8.364,8.364,0,0,1,7.84,12.278c3.44,2.132,4.85,5.077,3.31,8.976-1,2.56-3.85,4.809-8.1,3.9a26.213,26.213,0,0,1-.31,2.813,11.24,11.24,0,0,1-18.9,5.816,0.72,0.72,0,0,0-.89-0.21,8.268,8.268,0,0,1-11.2-7.685,0.6,0.6,0,0,0-.64-0.692,9.7,9.7,0,0,1-5.13-16.584,0.809,0.809,0,0,0,.25-0.939,8.207,8.207,0,0,1,8.38-10.516,0.73,0.73,0,0,0,.89-0.595,12.671,12.671,0,0,1,24.38,2.549C4900.18,765.392,4900.22,765.69,4900.26,765.985Zm-8.75,35.092a9.344,9.344,0,0,0,9.43-6.813,9.208,9.208,0,0,0,.12-4.4c-0.17-.843.18-1.449,0.86-1.412a2.228,2.228,0,0,1,.84.32,4.693,4.693,0,0,0,5.13-.211,4.6,4.6,0,0,0,2.11-4.624,4.711,4.711,0,0,0-3.38-4.069c-1.17-.4-1.34-0.9-0.64-1.927a6.147,6.147,0,0,0,.6-6.238,6.292,6.292,0,0,0-6.83-3.664,1.029,1.029,0,0,1-1.4-1.159,13.673,13.673,0,0,0-.14-1.694,10.767,10.767,0,0,0-20.98-1.061c-0.28,1.052-.53,1.2-1.59,1.024a6.352,6.352,0,0,0-7.08,8.7,1.058,1.058,0,0,1-.43,1.612,7.827,7.827,0,0,0-2.33,3,7.656,7.656,0,0,0,2.17,9.214,10.016,10.016,0,0,0,4.95,1.725,1.021,1.021,0,0,1,1.09,1.364,6.34,6.34,0,0,0,9.16,6.681,1.156,1.156,0,0,1,1.78.385A9.083,9.083,0,0,0,4891.51,801.077Zm-1.46-35.046a6.3,6.3,0,0,1,6.23,5.35,1.035,1.035,0,0,0,.74.944,5.322,5.322,0,0,1,3.25,5.577,5.427,5.427,0,0,1-4.77,4.66,3.363,3.363,0,0,1-.61.016,0.988,0.988,0,0,1-.94-0.943,0.975,0.975,0,0,1,.87-1c0.31-.045.61-0.052,0.91-0.12a3.375,3.375,0,0,0-.07-6.59c-1.11-.239-1.28-0.432-1.24-1.426a4.372,4.372,0,0,0-3.82-4.522,4.434,4.434,0,0,0-4.83,3.308,8.645,8.645,0,0,0-.14,1.021,0.964,0.964,0,1,1-1.92-.091A6.365,6.365,0,0,1,4890.05,766.031Zm-5.41,20.026c0.1-.467.19-1.029,0.35-1.568a0.981,0.981,0,1,1,1.81.589,3.407,3.407,0,0,0,6.11,2.922,1.044,1.044,0,0,1,1.29-.635,0.961,0.961,0,0,1,.44,1.509,5.324,5.324,0,0,1-9.83-1.573C4884.74,786.924,4884.71,786.54,4884.64,786.057Zm-12.66-5.936a5.3,5.3,0,0,1,5.05-5.249,1,1,0,0,1,1.24.857,0.989,0.989,0,0,1-1.09,1.025,3.459,3.459,0,0,0-3.24,2.81,3.4,3.4,0,0,0,1.89,3.676,5.533,5.533,0,0,0,1.1.325,0.964,0.964,0,1,1-.32,1.894A5.316,5.316,0,0,1,4871.98,780.121Z" transform="translate(-4841 -744)"/>
</svg>
