<svg id="ico-4" xmlns="http://www.w3.org/2000/svg" width="58.75" height="56.406" viewBox="0 0 58.75 56.406">
  <defs>
    <style>
      .cls-1 {
        fill: #fecd4d;
      }

      .cls-2 {
        fill-rule: evenodd;
      }
    </style>
  </defs>
  <circle id="Elipsa_713" data-name="Elipsa 713" class="cls-1" cx="24.64" cy="24.64" r="24.64"/>
  <path id="Kształt_761" data-name="Kształt 761" class="cls-2" d="M4491.92,900.306h-30.33a3.823,3.823,0,0,0-3.82,3.823v37.463a3.823,3.823,0,0,0,3.82,3.823h30.33a3.83,3.83,0,0,0,3.82-3.823V904.129A3.83,3.83,0,0,0,4491.92,900.306Zm-31.46,3.823a1.133,1.133,0,0,1,1.13-1.13h30.33a1.133,1.133,0,0,1,1.13,1.13v5.734h-32.59v-5.734Zm32.59,37.463a1.133,1.133,0,0,1-1.13,1.13h-30.33a1.133,1.133,0,0,1-1.13-1.13V912.556h32.59v29.036h0Zm-16.3-2.346a11.608,11.608,0,1,0-11.6-11.607A11.623,11.623,0,0,0,4476.75,939.246Zm0-2.693a8.917,8.917,0,0,1-8.88-8.249c4.03-2.818,6.02-1.227,7.63.064,0.15,0.12.29,0.233,0.44,0.341,0.12,0.093.25,0.2,0.38,0.3a7.536,7.536,0,0,0,8.93,1.3A8.929,8.929,0,0,1,4476.75,936.553Zm0-17.829a8.927,8.927,0,0,1,8.89,8.25c-4.03,2.818-6.02,1.226-7.64-.064-0.15-.12-0.29-0.233-0.43-0.341l-0.39-.3c-1.49-1.2-4.37-3.494-8.93-1.3A8.93,8.93,0,0,1,4476.75,918.724Zm13.05-13.639h-1.99a1.347,1.347,0,0,0,0,2.693h1.99A1.347,1.347,0,0,0,4489.8,905.085Zm-5.98,0h-1.98a1.347,1.347,0,1,0,0,2.693h1.98A1.347,1.347,0,1,0,4483.82,905.085Zm-13.55,0h-6.56a1.347,1.347,0,1,0,0,2.693h6.56A1.347,1.347,0,1,0,4470.27,905.085Z" transform="translate(-4437 -889)"/>
</svg>
