<svg id="ico-7" xmlns="http://www.w3.org/2000/svg" width="65.56" height="56.97" viewBox="0 0 65.56 56.97">
  <defs>
    <style>
      .cls-1 {
        fill: #fecd4d;
      }

      .cls-2 {
        fill-rule: evenodd;
      }
    </style>
  </defs>
  <circle id="Elipsa_713" data-name="Elipsa 713" class="cls-1" cx="24.64" cy="24.64" r="24.64"/>
  <path id="Kształt_761" data-name="Kształt 761" class="cls-2" d="M4453,1070.87a10.091,10.091,0,0,1,1.52-2.93c2.6-4.12,5.21-8.22,7.79-12.35a2.9,2.9,0,0,1,2.79-1.53c0.89,0.03,1.78-.01,2.66.01a0.813,0.813,0,0,1,.8,1.24,1.225,1.225,0,0,1-.81.39c-0.95.05-1.9,0.03-2.86,0.01a1.147,1.147,0,0,0-1.07.6q-4.11,6.525-8.23,13.03a4.229,4.229,0,0,0-.2.38h44.82c-0.12-.21-0.2-0.35-0.3-0.5q-4.05-6.4-8.1-12.83a1.251,1.251,0,0,0-1.22-.68c-0.4.03-.81,0.02-1.21,0.01a0.82,0.82,0,1,1-.02-1.64,12.621,12.621,0,0,1,1.74.01,2.567,2.567,0,0,1,2.06,1.34q3.96,6.3,7.95,12.59a10.013,10.013,0,0,1,1.47,2.85v10.06a2.786,2.786,0,0,1-2.04,2.03h-45.51a2.789,2.789,0,0,1-2.03-2.03v-10.06Zm47.92,3.84h-37.5a3.072,3.072,0,0,1-.68-0.04,0.811,0.811,0,0,1,.09-1.6c0.29-.02.58-0.01,0.87-0.01h36.69c0.17,0,.34-0.01.5-0.02v-1.61h-46.2v1.63h0.7c1.1,0,2.2-.01,3.3,0a0.8,0.8,0,0,1,.9.79,0.819,0.819,0,0,1-.9.86c-0.71.02-1.42,0-2.13,0h-1.9c0,1.99-.01,3.92.01,5.85a0.762,0.762,0,0,0,.76.74c0.21,0.02.42,0.01,0.63,0.01h43.91a0.841,0.841,0,0,0,.95-0.86C4500.93,1078.57,4500.92,1076.68,4500.92,1074.71Zm-19.83-33.83c0,0.56,0,1.07-.01,1.58a1.636,1.636,0,0,1-1.7,1.71c-1.06.01-2.13,0.01-3.19,0a1.622,1.622,0,0,1-1.7-1.7c-0.01-.52,0-1.03,0-1.59-0.3,0-.56.01-0.81-0.01a1.613,1.613,0,0,1-1.55-1.04,1.572,1.572,0,0,1,.4-1.81c1.34-1.35,2.68-2.7,4.03-4.03a1.629,1.629,0,0,1,2.45,0c1.34,1.32,2.67,2.66,4.01,3.99a1.59,1.59,0,0,1,.42,1.85,1.64,1.64,0,0,1-1.64,1.05h-0.71Zm-1.65,1.62v-2.21a0.887,0.887,0,0,1,1.08-1.06h1.22c-1.34-1.36-2.67-2.7-3.92-3.97-1.29,1.29-2.61,2.6-3.98,3.96,0.37,0,.74-0.01,1.1,0,1,0.03,1.2.24,1.2,1.25v2.03h3.3Zm-4.95,17.35c0-.57-0.01-1.09,0-1.6a1.611,1.611,0,0,1,1.71-1.69c1.06-.01,2.13-0.02,3.19-0.01a1.623,1.623,0,0,1,1.69,1.67c0.01,0.53.01,1.06,0.01,1.63,0.32,0,.59-0.01.86,0a1.6,1.6,0,0,1,1.5,1.04,1.529,1.529,0,0,1-.34,1.74c-1.37,1.39-2.74,2.78-4.14,4.14a1.622,1.622,0,0,1-2.41-.04c-1.35-1.33-2.68-2.67-4.01-4a1.572,1.572,0,0,1-.41-1.85,1.611,1.611,0,0,1,1.6-1.03h0.75Zm1.68-1.63c-0.01.08-.03,0.11-0.03,0.14v2.03a0.913,0.913,0,0,1-1.09,1.11h-1.3c1.4,1.38,2.73,2.71,3.98,3.95q1.935-1.935,3.96-3.95c-0.39,0-.8.01-1.22,0a0.886,0.886,0,0,1-1.03-1.07c-0.01-.73,0-1.46,0-2.21h-3.27Zm4.5-8.55c-0.09.95-.18,1.9-0.26,2.86-0.05.48-.08,0.96-0.12,1.44a0.872,0.872,0,0,1-.9.93,0.841,0.841,0,0,1-.75-1.04q0.3-3.585.62-7.17a0.845,0.845,0,0,1,1.64-.31c0.52,1,1.06,1.99,1.59,2.98,0.07,0.14.16,0.27,0.27,0.46,0.63-1.19,1.23-2.32,1.84-3.45a0.811,0.811,0,0,1,1.28-.37,1.07,1.07,0,0,1,.32.61c0.24,2.44.46,4.87,0.67,7.31a0.839,0.839,0,0,1-.77.98,0.83,0.83,0,0,1-.87-0.84c-0.15-1.46-.27-2.91-0.42-4.51a5.287,5.287,0,0,0-.31.52c-0.33.61-.64,1.23-0.98,1.83a0.849,0.849,0,0,1-1.55-.01c-0.42-.74-0.8-1.49-1.2-2.24C4480.73,1049.66,4480.7,1049.66,4480.67,1049.67Zm-7.23-3.85a4.437,4.437,0,0,1,3.07,1.41,0.834,0.834,0,1,1-1.18,1.14,2.889,2.889,0,0,0-4.93,1.5,2.854,2.854,0,0,0,1.36,2.97,2.886,2.886,0,0,0,3.23-.19c0.15-.12.28-0.26,0.43-0.39a0.821,0.821,0,1,1,1.17,1.15,4.442,4.442,0,0,1-3.48,1.49,4.578,4.578,0,0,1-4.42-4.6A4.633,4.633,0,0,1,4473.44,1045.82Zm-0.61,21.46a0.857,0.857,0,0,1-.83-0.84,0.827,0.827,0,0,1,.85-0.8,0.788,0.788,0,0,1,.79.8A0.82,0.82,0,0,1,4472.83,1067.28Zm9.9-1.64a0.826,0.826,0,0,1,.84.81,0.857,0.857,0,0,1-.84.83,0.823,0.823,0,0,1-.8-0.8A0.794,0.794,0,0,1,4482.73,1065.64Zm-16.52-3.3a0.82,0.82,0,0,1-1.64-.01,0.834,0.834,0,0,1,.83-0.83A0.82,0.82,0,0,1,4466.21,1062.34Zm23.97-.84a0.828,0.828,0,0,1,.82.84,0.811,0.811,0,0,1-.84.8,0.8,0.8,0,0,1-.79-0.8A0.82,0.82,0,0,1,4490.18,1061.5Zm0.84,4.89a0.817,0.817,0,0,1,1.63.11A0.817,0.817,0,1,1,4491.02,1066.39Zm-26.47.08a0.825,0.825,0,0,1-.84.81,0.839,0.839,0,0,1-.79-0.82,0.813,0.813,0,0,1,.83-0.82A0.791,0.791,0,0,1,4464.55,1066.47Zm3.32-8.29a0.813,0.813,0,0,1-.82.83,0.81,0.81,0,0,1-.03-1.62A0.818,0.818,0,0,1,4467.87,1058.18Zm21.47,0.01a0.8,0.8,0,0,1-.82.82,0.811,0.811,0,0,1-.81-0.83,0.8,0.8,0,0,1,.8-0.79A0.791,0.791,0,0,1,4489.34,1058.19Z" transform="translate(-4437 -1026)"/>
</svg>
