<svg id="ico-1" xmlns="http://www.w3.org/2000/svg" width="69.56" height="63.438" viewBox="0 0 69.56 63.438">
  <defs>
    <style>
      .cls-1 {
        fill: #fecd4d;
      }

      .cls-2 {
        fill-rule: evenodd;
      }
    </style>
  </defs>
  <circle id="Elipsa_713" data-name="Elipsa 713" class="cls-1" cx="24.64" cy="24.64" r="24.64"/>
  <path id="Kształt_712" data-name="Kształt 712" class="cls-2" d="M4482.99,781.15c0.75,0.163,1.42.324,2.09,0.447a1.113,1.113,0,0,1,1.06,1.21,1.072,1.072,0,0,1-1.35.873c-1.02-.22-2.02-0.541-3.04-0.786a0.95,0.95,0,0,0-.71.065,17.341,17.341,0,0,1-8.51,3.79,3.009,3.009,0,0,0-.35.109c0.3,0.53.56,1.03,0.84,1.523a1.076,1.076,0,0,1-.24,1.584,1.032,1.032,0,0,1-1.52-.465c-0.41-.686-0.74-1.424-1.15-2.112a0.944,0.944,0,0,0-.6-0.452,17.179,17.179,0,0,1-11.88-5.416c-0.06-.06-0.13-0.106-0.29-0.234-0.05.477-.1,0.862-0.13,1.249a1.109,1.109,0,0,1-1.1,1.177,1.065,1.065,0,0,1-1-1.258c0.1-.927.33-1.84,0.44-2.767a1.735,1.735,0,0,0-.14-1.038,16.949,16.949,0,0,1-1.57-14.241,1.87,1.87,0,0,0-.07-0.931c-0.26-1.012-.6-2-0.79-3.025a1.058,1.058,0,0,1,.95-1.347,1.12,1.12,0,0,1,1.14,1.214c0.02,0.262.06,0.522,0.13,1.013a18.155,18.155,0,0,1,5.4-5.794c-0.57-.3-1.02-0.553-1.49-0.78a1.075,1.075,0,0,1-.71-1.436,1.024,1.024,0,0,1,1.51-.5c0.77,0.386,1.48.893,2.24,1.309a1.02,1.02,0,0,0,.75.125,16.92,16.92,0,0,1,16.21,1c0.1,0.055.2,0.094,0.23,0.111,0.67-.5,1.27-1,1.92-1.417a1.016,1.016,0,0,1,1.51.3,1.053,1.053,0,0,1-.44,1.488c-0.39.275-.78,0.571-1.25,0.919a17.332,17.332,0,0,1,5.95,10.665c0.24-.186.41-0.315,0.58-0.44a1.023,1.023,0,0,1,1.49.1,1.007,1.007,0,0,1-.14,1.489c-0.44.409-.94,0.753-1.39,1.157a0.988,0.988,0,0,0-.34.578,17.216,17.216,0,0,1-4.05,10.612A1.948,1.948,0,0,0,4482.99,781.15ZM4455.54,766.3c-0.98,2.953-.35,8.082,1.27,10.347,0.17-.285.32-0.551,0.49-0.809a1.064,1.064,0,1,1,1.82,1.063c-0.26.469-.5,0.952-0.78,1.4a0.752,0.752,0,0,0,.13,1,14.827,14.827,0,0,0,7.77,4.972c0.97,0.255,1.98.375,3.04,0.569-0.06-.458-0.1-0.743-0.13-1.028a8.435,8.435,0,0,1-.1-0.864,1.106,1.106,0,0,1,.97-1.348,1.121,1.121,0,0,1,1.13,1.216c0.07,0.631.18,1.257,0.27,1.864,2.5-.02,6.55-1.668,7.92-3.181-0.24-.2-0.48-0.394-0.71-0.606a8.12,8.12,0,0,1-.71-0.715,1.026,1.026,0,0,1,.13-1.583,1.048,1.048,0,0,1,1.45.181c0.48,0.446.97,0.873,1.49,1.331a15.122,15.122,0,0,0,4.05-8.981c-0.33.13-.55,0.219-0.78,0.305-0.25.095-.5,0.2-0.75,0.279a1.059,1.059,0,1,1-.73-1.966c0.64-.263,1.29-0.518,1.9-0.838a0.762,0.762,0,0,0,.32-0.606,14.755,14.755,0,0,0-4.98-9.781,0.712,0.712,0,0,0-.87-0.123,12.2,12.2,0,0,1-2.5.635,1.014,1.014,0,0,1-1.18-1,1.088,1.088,0,0,1,1.11-1.1c0.27-.027.54-0.071,0.91-0.122a14.33,14.33,0,0,0-13.5-.655c0.2,0.444.42,0.879,0.6,1.334a1.058,1.058,0,1,1-1.96.765c-0.17-.375-0.35-0.744-0.55-1.163a14.816,14.816,0,0,0-5.6,6.376,0.684,0.684,0,0,0,.09.6c0.37,0.527.78,1.032,1.2,1.524,0.6,0.7.66,1.3,0.13,1.755s-1.1.336-1.73-.358C4455.98,766.794,4455.79,766.58,4455.54,766.3Zm24.06,25.543a5.036,5.036,0,0,1,2.87-4.92,34.9,34.9,0,0,1,4.79-1.83,4.287,4.287,0,0,0,2.44-1.752c0.62-.975,1.23-1.974,1.94-2.882,1.97-2.494,4.88-2.824,7.26-.723a16.714,16.714,0,0,1,2.86,3.341,30.276,30.276,0,0,1,4.7,12.2,7.835,7.835,0,0,1-1.52,6,12.192,12.192,0,0,1-8.64,4.938,6.066,6.066,0,0,1-4.92-1.687,18.162,18.162,0,0,1-1.6-1.612,29.246,29.246,0,0,0-6.38-5.571,15.3,15.3,0,0,1-2.78-2.471A4.157,4.157,0,0,1,4479.6,791.845Zm24.83,4.569c-0.03-.317-0.04-0.675-0.1-1.027a27.836,27.836,0,0,0-3.85-10.272,19.233,19.233,0,0,0-2.75-3.6c-1.49-1.516-3.16-1.313-4.47.371a20.386,20.386,0,0,0-1.38,2.057,6.463,6.463,0,0,1-4.46,3.34,7.159,7.159,0,0,0-1.28.384,18.381,18.381,0,0,0-3.04,1.347,3.147,3.147,0,0,0-.56,4.836,12.84,12.84,0,0,0,2.16,1.789,30.021,30.021,0,0,1,6.04,5.152,27.1,27.1,0,0,0,2.07,2.1,4.209,4.209,0,0,0,4.15,1.087,11.535,11.535,0,0,0,5.44-3A6.392,6.392,0,0,0,4504.43,796.414Zm-38.37,11.021c-6.59,0-11.69-4.3-12.65-10.284a5.571,5.571,0,0,1,.96-4.579,4.836,4.836,0,0,1,5.44-1.761,15.8,15.8,0,0,1,3.82,1.567,7.434,7.434,0,0,0,5.78.835,15.762,15.762,0,0,1,2.98-.379,5.063,5.063,0,0,1,5.47,4.736,6.843,6.843,0,0,1-2.59,6.337A14.311,14.311,0,0,1,4466.06,807.435Zm0.29-2.115a11.523,11.523,0,0,0,8.34-3.865,4.485,4.485,0,0,0,1.12-2.735,3.317,3.317,0,0,0-3.37-3.826c-0.49.027-.98,0.1-1.47,0.173-1.01.146-2.03,0.29-3.04,0.458a7.235,7.235,0,0,1-4.56-.925,25.961,25.961,0,0,0-4.23-1.8,2.876,2.876,0,0,0-3.65,2.326,6.677,6.677,0,0,0,.05,2C4456.48,801.959,4460.59,805.307,4466.35,805.32Zm32.69-46.226a7.488,7.488,0,1,1-7.49,7.5A7.537,7.537,0,0,1,4499.04,759.094Zm0.02,2.117a5.372,5.372,0,1,0,5.35,5.3A5.38,5.38,0,0,0,4499.06,761.211Zm-39.69,8.561a7.568,7.568,0,0,1,1.59-4.738,3.985,3.985,0,0,1,6.46,0,7.421,7.421,0,0,1,1.53,5.6,6.855,6.855,0,0,1-1.62,4.034,3.981,3.981,0,0,1-6.29,0A7.57,7.57,0,0,1,4459.37,769.772Zm2.12,0.023a5.6,5.6,0,0,0,.93,3.22,1.985,1.985,0,0,0,3.55-.021,6.05,6.05,0,0,0,.01-6.386,2,2,0,0,0-3.59.025A5.535,5.535,0,0,0,4461.49,769.8Zm17.16-4.292a6.046,6.046,0,0,1-1.45,4,3.632,3.632,0,0,1-5.59.066,6.252,6.252,0,0,1-.02-8.1,3.631,3.631,0,0,1,5.59.034A5.985,5.985,0,0,1,4478.65,765.5Zm-2.11.279a4.223,4.223,0,0,0-.91-2.882,1.563,1.563,0,0,0-2.46-.043,4.167,4.167,0,0,0,.03,5.339,1.532,1.532,0,0,0,2.36,0A3.573,3.573,0,0,0,4476.54,765.782Zm-1.1,10.957a3.52,3.52,0,0,1-1.35,3.022,2.836,2.836,0,0,1-3.73-.009,3.938,3.938,0,0,1,.01-5.982,2.883,2.883,0,0,1,3.94.183A3.573,3.573,0,0,1,4475.44,776.739Zm-2.12.06a1.5,1.5,0,0,0-1.06-1.642,1.744,1.744,0,0,0-.06,3.225A1.432,1.432,0,0,0,4473.32,776.8Zm28.72,18.125a16.041,16.041,0,0,1-.61,2.237,3.793,3.793,0,0,1-4.75,2.169,2.985,2.985,0,0,1-2.16-2.26,12.668,12.668,0,0,1-.28-2.377,1.084,1.084,0,0,1,1.13-1.153,1.108,1.108,0,0,1,1.01,1.251,9.821,9.821,0,0,0,.1,1.329,1.343,1.343,0,0,0,1.24,1.28,1.646,1.646,0,0,0,1.72-.99,4.005,4.005,0,0,0-1.23-5,1.01,1.01,0,0,1-.28-1.465,1.037,1.037,0,0,1,1.47-.283C4501.25,790.775,4501.9,792.527,4502.04,794.924Zm-11.73.357a3.642,3.642,0,0,1-3.5-4.486,1.074,1.074,0,0,1,1.31-.92,1.02,1.02,0,0,1,.75,1.34,1.5,1.5,0,1,0,2.79-.263,1.059,1.059,0,1,1,1.87-.982A3.605,3.605,0,0,1,4490.31,795.281Zm6.36-8.282a1.066,1.066,0,0,1-2.13-.027,1.087,1.087,0,0,1,1.12-1.076A1.058,1.058,0,0,1,4496.67,787Zm-32.88,10.6a3.5,3.5,0,0,1-3.22,3.263,3.221,3.221,0,0,1-3.32-2.924,1.111,1.111,0,0,1,.94-1.314,1.059,1.059,0,0,1,1.15,1.038,1,1,0,0,0,.87,1.03,1.576,1.576,0,0,0,1.09-.429,0.979,0.979,0,0,0-.07-1.339,1.074,1.074,0,0,1,.09-1.6,1.056,1.056,0,0,1,1.6.367A14.067,14.067,0,0,1,4463.79,797.6Zm4.3,1.173a1.012,1.012,0,0,0,.88,1.4,1.118,1.118,0,0,0,1.13-1.147,1.064,1.064,0,1,1,2.12.119,3.2,3.2,0,1,1-6.39-.38c0.12-.973.92-1.518,1.6-1.023A3.3,3.3,0,0,1,4468.09,798.774Zm27.76-30.27a5.374,5.374,0,0,1,5.14-5.113,1.061,1.061,0,1,1,.11,2.105,3.219,3.219,0,0,0-3.15,3.118A1.063,1.063,0,1,1,4495.85,768.5Z" transform="translate(-4437 -744)"/>
</svg>
