<svg id="ico-3" xmlns="http://www.w3.org/2000/svg" width="71.66" height="49.281" viewBox="0 0 71.66 49.281">
  <defs>
    <style>
      .cls-1 {
        fill: #fecd4d;
      }

      .cls-2 {
        fill-rule: evenodd;
      }
    </style>
  </defs>
  <circle id="Elipsa_713" data-name="Elipsa 713" class="cls-1" cx="24.64" cy="24.64" r="24.64"/>
  <path id="Kształt_761" data-name="Kształt 761" class="cls-2" d="M5318.65,785.884a2.2,2.2,0,0,1-2.34,1.31q-24.075-.029-48.16,0a2.037,2.037,0,0,1-1.99-1.306V762.352a2.022,2.022,0,0,1,2.19-1.377c5.93,0.027,11.86-.043,17.79.034a14.7,14.7,0,0,0,9-2.846,24.268,24.268,0,0,1,3.8-2.3c4.88-2.291,8.89,1.172,9.66,4.948a9.93,9.93,0,0,1-.11,4.53h0.63c0.82,0,1.65-.014,2.46,0a3.5,3.5,0,0,1,3.58,3.618c0.01,2.1,0,4.194,0,6.292v0.579c0.46,0,.89.026,1.3-0.006a1.939,1.939,0,0,1,2.19,1.364v8.7Zm-19.37-20.6a0.965,0.965,0,0,0,.15.045c2.31,0,4.62,0,6.92.015a0.392,0.392,0,0,0,.43-0.386,8.113,8.113,0,0,0,.2-3.29c-0.42-3.222-3.6-6.206-7.66-4.07a33.579,33.579,0,0,0-3.46,2.18,15.58,15.58,0,0,1-9.24,2.968c-6.02-.035-12.03-0.01-18.04-0.01h-0.63v13.093h2.55c0.16-1.465.31-1.769,0.9-1.727,1.12,0.079.82,1,.93,1.694h1.72c0-.29-0.01-0.544,0-0.8a0.84,0.84,0,0,1,.84-0.9,0.862,0.862,0,0,1,.9.9c0.01,0.265,0,.531,0,0.814h1.83c0.05-.129.09-0.256,0.14-0.383a3.84,3.84,0,0,1,4.26-2.51c1.94,0.316,3.87.676,5.81,0.961a1.97,1.97,0,0,1,1.98,1.951,18.813,18.813,0,0,0,1.84-.716,8.486,8.486,0,0,0,3.21-3.226,24.866,24.866,0,0,0,2.89-7.874,5.814,5.814,0,0,1,.64-1.707,4.3,4.3,0,0,1,4.53-2.205,0.9,0.9,0,0,1,.86.961,0.882,0.882,0,0,1-.97.78c-0.14,0-.27-0.024-0.41-0.032a2.485,2.485,0,0,0-2.24.989A4.907,4.907,0,0,0,5299.28,765.283Zm-31.34,20.1h48.94V777.61h-27.04c-0.32,1.358-.63,1.668-1.95,1.895-1.88.324-3.77,0.646-5.65,0.94a3.837,3.837,0,0,1-4.51-2.563,0.484,0.484,0,0,0-.28-0.285c-0.54-.028-1.08-0.013-1.61-0.013-0.14,1.388-.33,1.773-0.91,1.728-1.11-.085-0.83-1-0.91-1.7h-1.73a8.723,8.723,0,0,1-.01.892,0.884,0.884,0,0,1-.89.815,0.872,0.872,0,0,1-.84-0.867c-0.01-.28,0-0.561,0-0.844h-2.61v7.779Zm45.45-9.585c0.01-.2.02-0.36,0.02-0.526v-6.186a1.792,1.792,0,0,0-1.99-2c-4.06-.006-8.12,0-12.19-0.009a0.479,0.479,0,0,0-.57.409c-0.15.525-.33,1.04-0.52,1.549a16.026,16.026,0,0,1-4.2,6.623c-0.02.025-.02,0.081-0.05,0.143h19.5Zm-25.39-.108c-0.83-.141-1.6-0.277-2.38-0.4-1.38-.226-2.75-0.507-4.14-0.648a2.023,2.023,0,0,0-2.19,2.157,2.047,2.047,0,0,0,2.34,1.948c1.25-.17,2.5-0.4,3.74-0.6,0.87-.144,1.75-0.29,2.63-0.438v-2.013Zm11.4-2.532a0.88,0.88,0,0,1,.94-0.814,0.843,0.843,0,0,1,.8.929,0.859,0.859,0,0,1-.89.8A0.9,0.9,0,0,1,5299.4,773.161Zm0.89-2.589a0.862,0.862,0,1,1,.01-1.723,0.853,0.853,0,0,1,.84.841A0.837,0.837,0,0,1,5300.29,770.572Zm11.37-.852a0.872,0.872,0,0,1-.89.856,0.85,0.85,0,0,1-.85-0.893,0.861,0.861,0,0,1,.86-0.834A0.883,0.883,0,0,1,5311.66,769.72Zm0,3.5a0.891,0.891,0,0,1-.91.853,0.861,0.861,0,0,1-.83-0.91,0.832,0.832,0,0,1,.86-0.816A0.873,0.873,0,0,1,5311.66,773.221Zm-3.51-3.489a0.859,0.859,0,0,1-.9.84,0.862,0.862,0,0,1,.04-1.723A0.87,0.87,0,0,1,5308.15,769.732Zm-4.35-.887a0.853,0.853,0,0,1,.84.9,0.839,0.839,0,0,1-.85.83,0.858,0.858,0,0,1-.88-0.865A0.868,0.868,0,0,1,5303.8,768.845Zm-0.03,3.5a0.837,0.837,0,0,1,.87.854,0.865,0.865,0,0,1-.87.872,0.88,0.88,0,0,1-.86-0.839A0.864,0.864,0,0,1,5303.77,772.349Zm4.38,0.84a0.866,0.866,0,0,1-1.73.064,0.846,0.846,0,0,1,.83-0.9A0.861,0.861,0,0,1,5308.15,773.189Zm-26.22,2.652a0.851,0.851,0,0,1,.85.886,0.87,0.87,0,0,1-1.74-.03A0.858,0.858,0,0,1,5281.93,775.841Z" transform="translate(-5247 -744)"/>
</svg>
